<svg width="93" height="108" viewBox="0 0 93 108" fill="none" xmlns="http://www.w3.org/2000/svg">
<g clip-path="url(#clip0_164_320)">
<path d="M34.2994 97.9487C25.4227 106.909 17.1967 100.931 10.0107 90.566C2.8413 80.2126 -0.590456 69.3865 8.28644 60.4265C16.2591 52.379 32.4006 47.6165 40.7918 54.2374L45.0903 60.4258C49.006 71.5926 42.272 89.9013 34.2994 97.9487Z" fill="white"/>
<path opacity="0.4" d="M17.8476 56.8507C15.2414 58.0737 12.8132 59.6104 10.8073 61.3738C10.1807 61.9245 10.0575 62.9811 10.5387 63.6754L10.5528 63.6957C10.985 64.3192 11.755 64.4264 12.3161 63.9296C14.1357 62.3186 16.3445 60.9119 18.7196 59.7905C19.1969 59.5652 19.5389 59.0459 19.592 58.4386C19.6934 57.284 18.7557 56.4245 17.8476 56.8507Z" fill="white"/>
<path opacity="0.08" d="M34.2994 97.9487C25.4226 106.909 17.1966 100.931 10.0107 90.5661C9.45964 89.7714 8.92721 88.9676 8.42123 88.1662C15.2226 97.1543 22.9002 101.697 31.1266 93.3842C39.1081 85.3375 45.8421 67.029 41.9341 55.8732L45.0902 60.4258C49.006 71.5926 42.272 89.9013 34.2994 97.9487Z" fill="white"/>
<path d="M81.2501 23.9289L31.481 74.1652C30.0166 75.6435 27.8683 75.4555 26.6828 73.7455C25.4973 72.0354 25.7234 69.4508 27.1879 67.9726L76.9572 17.7362L81.2501 23.9289Z" fill="white"/>
<path opacity="0.08" d="M81.2488 23.9272L31.4784 74.1649C30.0192 75.6475 27.8639 75.4589 26.6841 73.7454C26.4952 73.4729 26.3434 73.1824 26.2286 72.8738C27.4509 73.8979 29.1672 73.8349 30.3922 72.5982L80.1625 22.3606L81.2488 23.9272Z" fill="white"/>
<path d="M89.7018 18.9226L84.6521 24.0196C83.5672 25.1148 81.9758 24.9755 81.0975 23.7087L77.1107 17.9579C76.2324 16.691 76.3999 14.7764 77.4849 13.6813L82.5345 8.58421C83.6194 7.48909 85.2108 7.62832 86.0891 8.8952L90.0759 14.6459C90.9542 15.9128 90.7867 17.8275 89.7018 18.9226ZM25.9066 90.8439C24.6692 92.0929 22.8542 91.9342 21.8526 90.4893L12.255 76.6449C11.2533 75.2 11.4443 73.0164 12.6817 71.7676C13.9191 70.5186 15.7341 70.6775 16.7356 72.1222L26.3333 85.9666C27.3348 87.4113 27.1438 89.5949 25.9066 90.8439Z" fill="#F2F0F0"/>
<path d="M45.1489 44.0885C45.763 44.9745 45.6463 46.3092 44.8876 47.075C44.1341 47.8356 43.0247 47.7385 42.4105 46.8526C41.7963 45.9667 41.9131 44.6319 42.6666 43.8714C43.4253 43.1055 44.5348 43.2026 45.1489 44.0885ZM50.2493 38.9402C50.8635 39.8262 50.7467 41.1609 49.988 41.9268C49.2345 42.6873 48.1251 42.5902 47.5109 41.7043C46.8968 40.8184 47.0135 39.4836 47.767 38.7231C48.5257 37.9572 49.6351 38.0543 50.2493 38.9402ZM55.3497 33.7921C55.9639 34.6781 55.8471 36.0128 55.0884 36.7786C54.3349 37.5392 53.2255 37.4421 52.6113 36.5562C51.9972 35.6703 52.1139 34.3355 52.8674 33.575C53.6259 32.8091 54.7355 32.9062 55.3497 33.7921ZM60.4499 28.6438C61.0641 29.5297 60.9474 30.8645 60.1887 31.6303C59.4352 32.3909 58.3258 32.2938 57.7116 31.4079C57.0974 30.5219 57.2142 29.1872 57.9676 28.4266C58.7263 27.6608 59.8358 27.7579 60.4499 28.6438ZM65.5503 23.4957C66.1645 24.3816 66.0478 25.7164 65.2891 26.4822C64.5356 27.2428 63.4262 27.1457 62.812 26.2598C62.1978 25.3738 62.3146 24.0391 63.068 23.2785C63.8266 22.5127 64.9362 22.6098 65.5503 23.4957ZM70.6506 18.3474C71.2648 19.2333 71.148 20.5681 70.3893 21.3339C69.6359 22.0944 68.5264 21.9974 67.9123 21.1115C67.2981 20.2255 67.4148 18.8908 68.1683 18.1302C68.927 17.3644 70.0364 17.4615 70.6506 18.3474Z" fill="#E5E3E5"/>
<path d="M91.1171 21.3502L89.814 19.4708L89.9715 19.3118C91.2416 18.0302 91.4377 15.7927 90.4092 14.3091L86.4224 8.55841C85.3949 7.07558 83.535 6.91285 82.2645 8.19464L82.1067 8.35401L80.8006 6.47469C80.6514 6.26013 80.3814 6.23651 80.1971 6.42288C80.0133 6.60891 79.9849 6.93395 80.1344 7.14894L81.4397 9.0272L78.0415 12.4571L76.7396 10.5792C76.5904 10.364 76.3204 10.3404 76.1362 10.5264C75.9519 10.7124 75.9235 11.0372 76.0727 11.2524L77.3746 13.1303L77.2147 13.2917C76.6008 13.9111 76.2172 14.7727 76.1346 15.7176C76.0759 16.3877 76.1766 17.041 76.4154 17.6209L71.6894 22.3916L70.9664 21.3487C71.613 20.3958 71.6667 18.9947 70.9839 18.0108C70.9839 18.0108 70.9839 18.0108 70.9839 18.0106C70.2207 16.9097 68.8417 16.7879 67.8982 17.7408C66.9608 18.6874 66.8179 20.3504 67.5789 21.4481C68.2414 22.4036 69.3831 22.6305 70.2984 22.0203L71.0225 23.0646L66.589 27.5397L65.866 26.4968C66.5126 25.5439 66.5663 24.1428 65.8835 23.1589C65.8835 23.1589 65.8835 23.1589 65.8835 23.1587C65.1203 22.0578 63.7413 21.936 62.7978 22.8889C61.8604 23.8353 61.7171 25.4982 62.4785 26.5962C63.141 27.5517 64.2827 27.7786 65.198 27.1684L65.9221 28.2127L61.4886 32.6878L60.7656 31.645C61.4122 30.692 61.4659 29.2909 60.7831 28.307C60.7831 28.307 60.7831 28.307 60.7831 28.3068C60.0198 27.2057 58.6414 27.0841 57.6979 28.0371C56.762 28.9808 56.6123 30.639 57.3781 31.7443C58.0406 32.6998 59.1823 32.9267 60.0976 32.3165L60.8217 33.3608L56.3882 37.8359L55.6652 36.7931C56.3118 35.8401 56.3655 34.439 55.6827 33.4551C55.6827 33.4551 55.6827 33.4551 55.6827 33.4549C54.9193 32.3538 53.541 32.2322 52.5975 33.1852C51.6616 34.1289 51.5119 35.7871 52.2777 36.8924C52.9593 37.8756 54.1115 38.0604 54.9983 37.466L55.7213 38.5089L51.2878 42.984L50.5648 41.9412C51.2083 40.9929 51.2676 39.5913 50.5828 38.6033C49.8215 37.5051 48.4366 37.3842 47.4969 38.3331C46.5594 39.2794 46.416 40.9426 47.1773 42.0405C47.8589 43.0237 49.0111 43.2085 49.8979 42.6142L50.6209 43.657L46.1875 48.132L45.4637 47.0878C46.1187 46.118 46.1511 44.716 45.4824 43.7512C44.7215 42.6535 43.3374 42.532 42.3967 43.4812C41.4591 44.4275 41.3158 46.0907 42.0771 47.1886C42.7379 48.1418 43.8796 48.3727 44.7968 47.7608L45.5208 48.8052L40.7638 53.6068C32.2048 47.2116 16.2296 51.7443 8.01792 60.0374C0.207911 67.9166 0.750846 78.0124 9.67752 90.9028C17.0288 101.507 25.4894 107.501 34.5693 98.3369C42.7774 90.0564 49.2951 71.8834 45.5989 60.5765L81.2484 24.5925C82.2999 25.5357 83.8217 25.5197 84.9219 24.4088L85.0818 24.2475L86.3847 26.1269C86.5339 26.3421 86.8039 26.3657 86.9881 26.1797C87.1724 25.9937 87.2008 25.6689 87.0516 25.4537L85.7487 23.5743L89.1471 20.144L90.4502 22.0234C90.5994 22.2386 90.8694 22.2622 91.0536 22.0762C91.2379 21.8902 91.2663 21.5654 91.1171 21.3502ZM68.2457 20.7749C67.7823 20.1064 67.8686 19.0947 68.4379 18.5196C69.0136 17.9389 69.8523 18.0132 70.3168 18.684C70.3168 18.684 70.3168 18.684 70.3168 18.6842C70.7822 19.3544 70.6947 20.3638 70.119 20.9443C69.5498 21.519 68.7107 21.4456 68.2457 20.7749ZM63.1454 25.9232C62.682 25.2547 62.7684 24.243 63.3376 23.6679C63.9133 23.0872 64.7518 23.1615 65.2165 23.8323C65.2165 23.8323 65.2165 23.8323 65.2165 23.8325C65.6819 24.5027 65.5944 25.5121 65.0188 26.0926C64.4496 26.6674 63.6105 26.594 63.1454 25.9232ZM58.045 31.0715C57.5788 30.399 57.6687 29.3906 58.2377 28.8162C58.8118 28.2362 59.651 28.309 60.1163 28.9806C60.1163 28.9806 60.1163 28.9806 60.1163 28.9808C60.5817 29.651 60.4942 30.6604 59.9185 31.2409C59.3492 31.8155 58.5101 31.7421 58.045 31.0715ZM52.9448 36.2196C52.4786 35.5471 52.5685 34.5387 53.1375 33.9644C53.7116 33.3843 54.5508 33.4571 55.016 34.1287C55.016 34.1287 55.016 34.1287 55.016 34.1289C55.4814 34.7991 55.3939 35.8085 54.8183 36.3891C54.2489 36.9638 53.4097 36.8904 52.9448 36.2196ZM47.8444 41.3679C47.381 40.6992 47.4672 39.6875 48.0366 39.1124C48.6093 38.5352 49.4522 38.6088 49.9159 39.2771C50.3806 39.948 50.2934 40.9568 49.7177 41.5373C49.1485 42.1119 48.3094 42.0385 47.8444 41.3679ZM42.7441 46.516C42.2807 45.8474 42.3669 44.8357 42.9367 44.2606C43.5088 43.6831 44.3521 43.7565 44.8156 44.425C45.279 45.0936 45.1902 46.1077 44.6178 46.6855C44.0477 47.2606 43.2072 47.1844 42.7441 46.516ZM47.8595 50.5444L46.7276 48.9113L51.1609 44.4364L52.2929 46.0693C52.442 46.2844 52.712 46.308 52.8963 46.122C53.0805 45.9361 53.109 45.6112 52.9598 45.3961L51.8278 43.7632L56.2613 39.2881L57.3933 40.9209C57.5424 41.1361 57.8124 41.1597 57.9967 40.9737C58.181 40.7878 58.2094 40.4629 58.0602 40.2478L56.9282 38.6149L61.3617 34.1398L62.4937 35.7726C62.6429 35.9878 62.9129 36.0114 63.0971 35.8254C63.2814 35.6395 63.3098 35.3146 63.1606 35.0995L62.0286 33.4666L66.4621 28.9915L67.5941 30.6243C67.7433 30.8395 68.0133 30.8631 68.1975 30.6771C68.3818 30.4912 68.4102 30.1663 68.261 29.9512L67.129 28.3183L71.5625 23.8432L72.6945 25.476C72.8437 25.6912 73.1137 25.7148 73.298 25.5288C73.4822 25.3429 73.5106 25.018 73.3615 24.8029L72.2295 23.17L76.8938 18.4619L80.6471 23.8757L31.211 73.7759C29.9325 75.0657 28.0509 74.9011 27.0162 73.4089C25.9816 71.9163 26.1797 69.652 27.4578 68.362L46.0606 49.5845L47.1926 51.2176C47.3418 51.4327 47.6118 51.4563 47.796 51.2704C47.9803 51.0844 48.0087 50.7595 47.8595 50.5444ZM34.0294 97.5583C25.3562 106.313 17.3606 100.351 10.3445 90.2304C1.78092 77.8644 1.1966 68.2434 8.55791 60.8169C16.3043 52.9932 31.8593 48.5026 40.0605 54.3175L26.918 67.5833C25.2722 69.2445 25.0172 72.1599 26.3495 74.0821C27.682 76.0041 30.1049 76.2163 31.7511 74.5547L44.896 61.2863C48.2521 72.2192 41.9376 89.5805 34.0294 97.5583ZM81.432 23.3734L77.4441 17.6213C77.0914 17.1126 76.9295 16.4632 76.9882 15.7924C77.0469 15.1219 77.3191 14.5105 77.7548 14.0707C78.475 13.3439 83.1203 8.65926 82.8044 8.97361C83.7058 8.06434 85.0256 8.17902 85.7555 9.2318L89.7423 14.9825C90.4721 16.0351 90.3332 17.6233 89.4316 18.5334C87.877 20.1026 86.826 21.1634 84.3819 23.6305C83.4816 24.539 82.1627 24.4252 81.432 23.3734Z" fill="white"/>
<path d="M17.0691 71.7856C15.9205 70.1281 13.8306 69.9453 12.4116 71.3781C10.9923 72.8108 10.7724 75.3242 11.9213 76.9815L21.5192 90.8259C22.6674 92.4825 24.7577 92.6662 26.1767 91.2333C27.596 89.8007 27.8158 87.2873 26.6669 85.63L17.0691 71.7856ZM25.6366 90.4544C24.5851 91.5157 23.037 91.3803 22.1859 90.1525L12.5881 76.3081C11.7369 75.0803 11.8998 73.2181 12.9513 72.1567C14.0025 71.0957 15.5509 71.2308 16.402 72.4586L25.9998 86.303C26.851 87.5308 26.6881 89.393 25.6366 90.4544Z" fill="white"/>
</g>
<defs>
<clipPath id="clip0_164_320">
<rect width="84" height="101.062" fill="white" transform="translate(8.80859) rotate(5)"/>
</clipPath>
</defs>
</svg>
