<svg width="93" height="83" viewBox="0 0 93 83" fill="none" xmlns="http://www.w3.org/2000/svg">
<g clip-path="url(#clip0_164_304)">
<path d="M23.0004 64.6869C21.3089 66.1392 19.037 67.0776 16.4369 67.1229C14.0328 67.1649 11.8637 65.8458 11.0102 63.8481C8.06389 56.9274 6.54291 50.7261 6.39028 41.982C6.23765 33.2378 7.54129 26.9872 10.2471 19.9679C11.0275 17.9416 13.1521 16.5476 15.5534 16.5057C18.1506 16.4603 20.4567 17.3188 22.1951 18.7112C18.2344 24.5145 16.1707 32.3303 16.3361 41.8083C16.5016 51.2864 18.8368 59.0254 23.0004 64.6869Z" fill="#75A8F2"/>
<path d="M66.4324 54.473C52.5081 59.7591 41.927 62.4627 24.0891 58.3361C22.5931 55.1926 21.5901 51.6355 21.0598 47.7992C33.1765 50.8332 49.2928 51.2709 65.6508 51.0639C65.8703 52.2372 66.1346 53.3744 66.4324 54.473ZM65.0759 47.2764C48.459 47.4728 32.2196 46.9816 20.6905 43.7373C20.5771 41.6405 20.5801 41.8126 20.6205 39.7284C32.0293 36.0837 48.2418 35.026 64.8554 34.6424C64.6842 36.7213 64.6075 38.8416 64.6445 40.965C64.6816 43.0884 64.8322 45.2048 65.0759 47.2764ZM26.0515 20.4489C30.0845 14.7177 36.465 11.0773 45.6436 10.917C53.39 10.7818 63.985 13.1159 70.7161 17.1832C69.1986 18.835 67.9726 21.064 67.0379 23.698C53.3268 19.0538 42.6173 16.6787 26.0515 20.4489Z" fill="#75A8F2"/>
<path d="M46.7038 71.6578C37.5252 71.818 31.0216 68.4024 26.791 62.8155C43.4755 66.0053 54.0984 63.2578 67.6391 58.1405C68.6651 60.7378 69.9653 62.9226 71.5396 64.5205C64.9602 68.8201 54.4502 71.5225 46.7038 71.6578ZM20.8479 35.6561C21.2468 31.8035 22.125 28.2135 23.5076 25.0198C41.1906 20.2732 51.8596 22.6059 65.9599 27.4028C65.7006 28.5111 65.4762 29.6568 65.295 30.8372C48.9425 31.2011 32.8513 32.201 20.8479 35.6561ZM85.9571 40.593C85.7375 28.012 81.7431 17.8818 77.0345 17.964C72.3258 18.0462 68.6875 28.3096 68.9071 40.8906C69.1267 53.4715 73.121 63.6017 77.8297 63.5195C82.5383 63.4374 86.1767 53.1739 85.9571 40.593ZM74.5904 40.7914C74.5172 36.5977 75.731 33.1766 77.2996 33.1492C78.8682 33.1218 80.2006 36.4985 80.2738 40.6922C80.347 44.8858 79.1332 48.307 77.5646 48.3344C75.996 48.3617 74.6636 44.985 74.5904 40.7914Z" fill="#75A8F2"/>
</g>
<defs>
<clipPath id="clip0_164_304">
<rect width="81" height="90.9473" fill="white" transform="translate(90.9336) rotate(89)"/>
</clipPath>
</defs>
</svg>
