<svg width="113" height="118" viewBox="0 0 113 118" fill="none" xmlns="http://www.w3.org/2000/svg">
<g clip-path="url(#clip0_164_315)">
<path d="M11.584 82.2923C11.4317 82.2313 11.2972 82.1323 11.1907 82.003C11.0298 81.8198 10.9264 81.5855 10.8935 81.3293C10.8605 81.073 10.8995 80.8061 11.0054 80.5619L25.5148 47.1927C25.6211 46.9487 25.7897 46.7382 25.9996 46.5875C26.2095 46.4369 26.4514 46.3526 26.6951 46.3454C26.9374 46.3388 27.1707 46.4086 27.3663 46.5462C27.5619 46.6838 27.7112 46.8832 27.7958 47.1198C29.9204 53.1309 35.3055 59.0512 43.7873 64.7061C43.98 64.835 44.1304 65.023 44.2209 65.2482C44.3115 65.4735 44.3385 65.7267 44.2988 65.9785C43.3218 72.0274 44.533 78.069 47.68 82.8437C47.8255 83.0683 47.8967 83.3426 47.8832 83.6267C47.8698 83.9108 47.7725 84.1898 47.6054 84.4233C47.4376 84.6594 47.2075 84.837 46.9491 84.9297C46.6906 85.0224 46.4176 85.0253 46.1704 84.938C31.8185 79.8659 20.1741 78.9437 12.5078 82.2799C12.2037 82.4119 11.8728 82.4164 11.584 82.2923ZM26.58 50.865L14.4123 78.8489C21.8428 76.6671 31.9052 77.4931 43.8421 81.2933C41.7846 76.8297 41.0478 71.7101 41.7238 66.5744C34.3578 61.5673 29.276 56.2965 26.58 50.865Z" fill="white"/>
<path d="M55.3875 92.8204C51.8692 91.2992 48.8038 88.8702 46.4444 85.7338C44.0849 82.5975 42.499 78.8438 41.8177 74.7827C41.1363 70.7216 41.379 66.4695 42.5258 62.3776C43.6725 58.2856 45.6904 54.4711 48.4128 51.2489C51.1353 48.0268 54.4841 45.4894 58.183 43.8464C61.8818 42.2033 65.8246 41.5016 69.6857 41.7993C73.5468 42.097 77.2156 43.3855 80.389 45.5584C83.5625 47.7313 86.1497 50.7263 87.937 54.2961L96.3903 37.5486C96.5452 37.2393 96.8 36.9963 97.1026 36.8694C97.4052 36.7426 97.7327 36.7414 98.018 36.8662L102.495 38.813C102.792 38.9421 103.02 39.1969 103.129 39.5214C103.237 39.846 103.217 40.2136 103.074 40.5434L88.2077 77.7947C85.367 84.3117 80.3198 89.5508 74.1696 92.3665C68.0193 95.1822 61.2664 95.3454 55.3875 92.8204ZM75.7211 46.0563C71.7797 44.3484 67.3639 43.9768 63.0317 44.9885C58.6996 46.0003 54.6455 48.3499 51.3817 51.7405C48.118 55.1311 45.7911 59.4105 44.6951 64.0379C43.5991 68.6653 43.7832 73.433 45.2241 77.7387C46.665 82.0443 49.2981 85.6945 52.7906 88.228C56.283 90.7616 60.4782 92.0648 64.8458 91.9729C69.2135 91.881 73.5577 90.3982 77.3294 87.7119C81.1011 85.0255 84.1311 81.2562 86.0365 76.8802L100.373 40.8478L97.9886 39.8111L88.9 57.8056C88.7846 58.0353 88.6132 58.2299 88.4058 58.3668C88.1983 58.5038 87.9634 58.5773 87.7283 58.579C87.4932 58.5806 87.2677 58.5102 87.0781 58.3761C86.8884 58.2419 86.7424 58.0495 86.6571 57.8213C84.6379 52.4363 80.7304 48.2326 75.7211 46.0563ZM57.8751 87.0993C54.5058 85.6372 51.6942 83.0975 49.7961 79.8017C47.8979 76.5059 46.9986 72.602 47.2118 68.5839C47.425 64.5659 48.7412 60.6142 50.9939 57.229C53.2465 53.8438 56.3344 51.1771 59.8667 49.5663C63.3991 47.9556 67.2173 47.4732 70.8381 48.1801C74.459 48.887 77.7198 50.7516 80.208 53.5378C82.6962 56.324 84.3 59.9067 84.8164 63.8326C85.3328 67.7584 84.7387 71.8511 83.1092 75.5926C80.9241 80.6018 77.0405 84.6262 72.3101 86.7833C67.5797 88.9403 62.3886 89.0539 57.8751 87.0993ZM73.2389 51.765C70.3149 50.4907 67.0369 50.2087 63.8195 50.9545C60.602 51.7004 57.5897 53.4407 55.1636 55.9552C52.7374 58.4697 51.0064 61.6455 50.1896 65.0809C49.3728 68.5163 49.5068 72.0569 50.5746 75.2548C51.6425 78.4528 53.5963 81.1644 56.1889 83.0467C58.7814 84.9289 61.8963 85.8973 65.1394 85.8292C68.3824 85.7612 71.6081 84.6598 74.4083 82.6644C77.2085 80.669 79.4574 77.8692 80.8705 74.6192C82.7608 70.2636 83.0189 65.4114 81.5882 61.1269C80.1575 56.8424 77.1548 53.4755 73.2389 51.765Z" fill="white"/>
<path d="M75.3621 79.1451L51.7662 68.8853C50.4531 68.2322 49.4646 67.0396 49.0059 65.5554C48.5473 64.0711 48.6538 62.4094 49.3034 60.9155C49.953 59.4216 51.0956 58.2104 52.4939 57.5336C53.8922 56.8568 55.4386 56.7664 56.8117 57.2813L80.4077 67.5411C81.7207 68.1942 82.7093 69.3868 83.1679 70.871C83.6265 72.3552 83.52 74.017 82.8705 75.5109C82.2209 77.0048 81.0782 78.216 79.6799 78.8928C78.2816 79.5696 76.7353 79.66 75.3621 79.1451ZM55.741 59.7439C54.9589 59.4653 54.0841 59.5269 53.2949 59.9161C52.5057 60.3054 51.8616 60.9928 51.4939 61.8384C51.1263 62.6839 51.0627 63.6239 51.3163 64.4665C51.5699 65.3091 52.1215 65.9909 52.8586 66.3729L76.4545 76.6328C77.2366 76.9113 78.1114 76.8497 78.9006 76.4605C79.6898 76.0713 80.3339 75.3838 80.7016 74.5382C81.0692 73.6927 81.1327 72.7528 80.8792 71.9101C80.6256 71.0675 80.074 70.3857 79.3369 70.0037L55.741 59.7439Z" fill="white"/>
<path d="M55.2171 75.0295C54.9203 74.9004 54.6925 74.6456 54.584 74.321C54.4755 73.9965 54.4951 73.6289 54.6386 73.299L62.0149 56.3346C62.1583 56.0048 62.4138 55.7397 62.7251 55.5977C63.0365 55.4558 63.3782 55.4485 63.675 55.5776C63.9719 55.7067 64.1996 55.9615 64.3081 56.286C64.4166 56.6106 64.397 56.9782 64.2536 57.308L56.8773 74.2725C56.7338 74.6023 56.4784 74.8674 56.167 75.0093C55.8557 75.1513 55.514 75.1586 55.2171 75.0295ZM61.8661 77.9205C61.5692 77.7914 61.3415 77.5366 61.233 77.2121C61.1245 76.8876 61.1441 76.5199 61.2875 76.1901L68.6639 59.2257C68.8073 58.8958 69.0628 58.6307 69.3741 58.4888C69.6854 58.3468 70.0271 58.3396 70.324 58.4687C70.6209 58.5977 70.8486 58.8526 70.9571 59.1771C71.0656 59.5016 71.046 59.8692 70.9026 60.1991L63.5262 77.1635C63.3828 77.4934 63.1273 77.7584 62.816 77.9004C62.5046 78.0424 62.163 78.0496 61.8661 77.9205ZM68.515 80.8116C68.2182 80.6825 67.9904 80.4277 67.8819 80.1031C67.7734 79.7786 67.793 79.411 67.9365 79.0811L75.3128 62.1167C75.4562 61.7869 75.7117 61.5218 76.023 61.3798C76.3344 61.2379 76.6761 61.2306 76.9729 61.3597C77.2698 61.4888 77.4976 61.7436 77.6061 62.0681C77.7146 62.3927 77.6949 62.7603 77.5515 63.0901L70.1752 80.0545C70.0317 80.3844 69.7763 80.6495 69.4649 80.7914C69.1536 80.9334 68.8119 80.9406 68.515 80.8116ZM101.492 41.3345L97.0148 39.3877C96.7754 39.3138 96.5687 39.1606 96.4227 38.949C96.2766 38.7374 96.1983 38.4775 96.1983 38.2045L96.2651 31.1941C96.2619 30.9602 96.3164 30.7247 96.4231 30.5115C96.5299 30.2982 96.685 30.1148 96.873 29.9796C97.053 29.8557 97.2555 29.7797 97.4623 29.7585C97.669 29.7374 97.8734 29.7718 98.057 29.8585L107.661 34.0344C107.85 34.1171 108.012 34.2514 108.133 34.4248C108.254 34.5981 108.329 34.8051 108.352 35.0262C108.376 35.2474 108.346 35.4757 108.266 35.6898C108.186 35.9039 108.059 36.097 107.895 36.251L102.78 41.0663C102.6 41.2325 102.385 41.3454 102.157 41.3928C101.93 41.4401 101.7 41.4199 101.492 41.3345ZM98.768 37.1922L101.869 38.5404L104.8 35.748L98.744 33.1149L98.768 37.1922ZM7.6133 85.1799C6.72269 84.7927 6.03949 84.0282 5.71398 83.0546C5.38847 82.081 5.44733 80.9782 5.87761 79.9886L21.5604 43.9206C21.9965 42.9178 22.7731 42.112 23.7196 41.6804C24.666 41.2488 25.7048 41.2268 26.6073 41.6192C27.5098 42.0116 28.2021 42.7863 28.5319 43.7729C28.8618 44.7594 28.8021 45.877 28.3661 46.8797L12.6833 82.9478C12.4667 83.4463 12.1624 83.9008 11.7884 84.2842C11.4143 84.6677 10.9781 84.9725 10.5055 85.1806C10.0329 85.3887 9.5335 85.4958 9.03675 85.4957C8.54 85.4956 8.05599 85.3882 7.6133 85.1799ZM25.4971 44.0499C25.2003 43.9208 24.8586 43.928 24.5472 44.07C24.2359 44.212 23.9804 44.4771 23.837 44.8069L8.11631 80.962C8.04246 81.1319 7.99944 81.3132 7.9897 81.4955C7.97997 81.6779 8.00372 81.8578 8.05959 82.0249C8.11547 82.192 8.20237 82.3431 8.31534 82.4695C8.42832 82.5959 8.56515 82.6952 8.71802 82.7617C8.8709 82.8281 9.03683 82.8605 9.20633 82.8569C9.37583 82.8533 9.54559 82.8138 9.70592 82.7407C9.86624 82.6676 10.014 82.5623 10.1407 82.4308C10.2675 82.2993 10.3707 82.1442 10.4446 81.9744L26.1274 45.9063C26.2172 45.7323 26.2722 45.5422 26.2887 45.3493C26.3051 45.1563 26.2827 44.9651 26.2228 44.7886C26.1629 44.6122 26.067 44.4548 25.9417 44.3273C25.8164 44.1997 25.6648 44.1051 25.4971 44.0499Z" fill="white"/>
</g>
<defs>
<clipPath id="clip0_164_315">
<rect width="83" height="92.2222" fill="white" transform="translate(36.8242 0.275879) rotate(23.5)"/>
</clipPath>
</defs>
</svg>
