<svg width="89" height="98" viewBox="0 0 89 98" fill="none" xmlns="http://www.w3.org/2000/svg">
<g clip-path="url(#clip0_164_308)">
<path d="M36.9906 97.2982C32.7492 97.2982 28.5495 95.7924 25.1703 92.7352C20.9845 88.9631 18.5509 83.6396 18.2867 77.7382C18.0364 71.9128 20.0528 66.1938 23.8075 62.0871L50.9525 32.3973C51.8008 31.4695 52.3848 30.3743 52.6629 29.2184C54.6098 21.0202 54.7906 11.7878 53.2192 1.79483C53.1218 1.15601 53.4 0.5324 53.9284 0.2282C54.4429 -0.0607888 55.0826 0.030471 55.4998 0.50198L88.5967 36.7017C89.0139 37.158 89.1112 37.8576 88.847 38.4204C88.5828 38.9832 88.0126 39.3026 87.4146 39.1961C78.2782 37.4774 69.8511 37.6751 62.3417 39.8045C61.6881 39.987 61.0623 40.3064 60.4783 40.7323L65.2898 45.995C68.8637 49.9039 70.8384 55.121 70.8384 60.6574C70.8384 66.1938 68.8637 71.3956 65.2898 75.3198L50.9664 90.986C47.1422 95.1536 42.0525 97.283 36.9906 97.2982ZM56.4733 5.719C57.4189 14.4343 57.0295 22.5716 55.2773 29.9485C54.8879 31.6064 54.0536 33.173 52.8576 34.4658L25.7265 64.1557C22.5003 67.6844 20.7759 72.582 20.9845 77.5861C21.207 82.651 23.3068 87.214 26.8808 90.4537C33.2498 96.2183 42.9981 95.5186 49.0612 88.8871L63.3847 73.2208C69.7259 66.2851 69.7259 55.0145 63.3847 48.0787L58.4757 42.7096L53.8032 47.8202L58.7122 53.1893C60.5339 55.1818 61.5351 57.8283 61.5351 60.6574C61.5351 63.4712 60.5339 66.1178 58.7122 68.1103L44.3331 83.8222C40.6758 87.8224 34.8351 88.2787 31.0526 84.8412C28.9667 82.9552 27.7012 80.1718 27.5761 77.221C27.4509 74.2551 28.48 71.35 30.3851 69.2662L57.5301 39.5764C58.7122 38.2835 60.1445 37.3709 61.6603 36.9298C68.4048 35.0134 75.8447 34.5875 83.8129 35.6218L56.4733 5.719ZM51.912 49.9039L32.3042 71.35C30.9275 72.8558 30.1904 74.9548 30.2739 77.0841C30.3712 79.244 31.2612 81.1908 32.777 82.5749C35.5026 85.039 39.744 84.6739 42.4279 81.7384L56.807 66.0113C59.5187 63.0453 59.5187 58.2238 56.807 55.2578L51.912 49.9039Z" fill="white"/>
<path d="M10.7357 89.9061C10.388 89.9061 10.0403 89.7693 9.77612 89.4803C9.24768 88.9023 9.24768 87.9745 9.77612 87.3965L18.7317 77.6013C19.2602 77.0233 20.1085 77.0233 20.6369 77.6013C21.1653 78.1793 21.1653 79.1071 20.6369 79.685L11.6813 89.4803C11.431 89.754 11.0833 89.9061 10.7357 89.9061ZM6.1744 84.9173C5.82675 84.9173 5.47909 84.7804 5.21487 84.4914C4.68643 83.9134 4.68643 82.9856 5.21487 82.4076L23.8075 62.0719C24.336 61.4939 25.1842 61.4939 25.7127 62.0719C26.2411 62.6499 26.2411 63.5777 25.7127 64.1557L7.13393 84.4762C6.86971 84.7652 6.52206 84.9173 6.1744 84.9173Z" fill="white"/>
<path d="M9.42844 95.184C8.39937 95.184 7.42594 94.7429 6.70281 93.952L1.12641 87.8528C-0.375469 86.2101 -0.375469 83.5332 1.12641 81.8905C2.67 80.2022 5.17313 80.2478 6.61938 81.8449L12.1958 87.9441C12.9189 88.735 13.3222 89.7997 13.3222 90.9252C13.3222 92.0508 12.9189 93.1155 12.1958 93.9064L12.1541 93.952C11.4309 94.7429 10.4575 95.184 9.42844 95.184ZM3.89375 83.5484C3.60172 83.5484 3.29578 83.6701 3.07328 83.9134C2.57266 84.461 2.57266 85.2671 3.03156 85.7538L8.60797 91.853C9.06688 92.355 9.79 92.355 10.2489 91.853L10.2906 91.8074C10.7356 91.3055 10.7356 90.5146 10.2906 90.0126L4.71422 83.9134C4.49172 83.6701 4.19969 83.5484 3.89375 83.5484ZM47.8792 84.9021C47.5316 84.9021 47.1839 84.7652 46.9197 84.4762L31.2334 67.3042C30.705 66.7262 30.705 65.7984 31.2334 65.2204C31.7619 64.6424 32.6102 64.6424 33.1386 65.2204L48.8248 82.3924C49.3533 82.9704 49.3533 83.8982 48.8248 84.4762C48.5745 84.75 48.2269 84.9021 47.8792 84.9021ZM54.3039 77.8751C53.9562 77.8751 53.6086 77.7382 53.3444 77.4492L37.6581 60.2772C37.1297 59.6992 37.1297 58.7714 37.6581 58.1934C38.1866 57.6154 39.0348 57.6154 39.5633 58.1934L55.2495 75.3502C55.778 75.9282 55.778 76.856 55.2495 77.434C54.9992 77.723 54.6516 77.8751 54.3039 77.8751ZM60.7286 70.8481C60.3809 70.8481 60.0333 70.7112 59.7691 70.4222L44.0828 53.2502C43.5544 52.6722 43.5544 51.7444 44.0828 51.1664C44.6113 50.5884 45.4595 50.5884 45.988 51.1664L61.6742 68.3232C62.2027 68.9012 62.2027 69.829 61.6742 70.407C61.4239 70.696 61.0762 70.8481 60.7286 70.8481ZM27.0338 62.1024C26.6861 62.1024 26.3384 61.9655 26.0742 61.6765L21.805 57.007C21.2766 56.429 21.2766 55.5012 21.805 54.9233C22.3334 54.3453 23.1817 54.3453 23.7102 54.9233L27.9794 59.5927C28.5078 60.1707 28.5078 61.0985 27.9794 61.6765C27.7291 61.9503 27.3814 62.1024 27.0338 62.1024Z" fill="white"/>
<path d="M21.4434 58.8777C21.0958 58.8777 20.7481 58.7408 20.4839 58.4518C19.9555 57.8739 19.9555 56.9461 20.4839 56.3681L23.1261 53.4782C23.6545 52.9002 24.5028 52.9002 25.0313 53.4782C25.5597 54.0562 25.5597 54.984 25.0313 55.5619L22.3891 58.4518C22.1388 58.7408 21.7911 58.8777 21.4434 58.8777ZM33.4584 55.0752C33.1108 55.0752 32.7631 54.9383 32.4989 54.6494L28.2297 49.9799C27.7013 49.4019 27.7013 48.4741 28.2297 47.8961C28.7581 47.3182 29.6064 47.3182 30.1349 47.8961L34.4041 52.5656C34.9325 53.1436 34.9325 54.0714 34.4041 54.6494C34.1538 54.9231 33.8061 55.0752 33.4584 55.0752Z" fill="white"/>
<path d="M27.8681 51.8509C27.5205 51.8509 27.1728 51.714 26.9086 51.425C26.3802 50.847 26.3802 49.9192 26.9086 49.3412L29.5508 46.4513C30.0792 45.8734 30.9275 45.8734 31.4559 46.4513C31.9844 47.0293 31.9844 47.9571 31.4559 48.5351L28.8138 51.425C28.5634 51.714 28.2158 51.8509 27.8681 51.8509ZM39.897 48.0484C39.5494 48.0484 39.2017 47.9115 38.9375 47.6225L34.6683 42.953C34.1398 42.3751 34.1398 41.4473 34.6683 40.8693C35.1967 40.2913 36.045 40.2913 36.5734 40.8693L40.8427 45.5387C41.3711 46.1167 41.3711 47.0445 40.8427 47.6225C40.5784 47.8963 40.2308 48.0484 39.897 48.0484Z" fill="white"/>
<path d="M34.3067 44.8237C33.9591 44.8237 33.6114 44.6869 33.3472 44.3979C32.8188 43.8199 32.8188 42.8921 33.3472 42.3141L35.9894 39.4242C36.5178 38.8462 37.3661 38.8462 37.8945 39.4242C38.423 40.0022 38.423 40.93 37.8945 41.508L35.2524 44.3979C34.9881 44.6869 34.6405 44.8237 34.3067 44.8237Z" fill="white"/>
</g>
<defs>
<clipPath id="clip0_164_308">
<rect width="89" height="97.3438" fill="white"/>
</clipPath>
</defs>
</svg>
