<svg width="77" height="84" viewBox="0 0 77 84" fill="none" xmlns="http://www.w3.org/2000/svg">
<g clip-path="url(#clip0_164_292)">
<path d="M73.162 18.9251C67.5795 19.4958 63.152 21.7528 58.8809 26.0981L52.8051 19.5477C56.8356 14.9429 58.917 10.1825 59.4584 4.15088L73.162 18.9251Z" fill="white"/>
<path d="M76.6636 19.1323L59.2544 0.375934C58.9295 -0.000230647 58.4242 -0.091029 57.9911 0.0905677C57.5459 0.285136 57.2692 0.726156 57.2572 1.23203C57.173 8.36619 55.1156 13.5806 50.3512 18.6783L40.1367 29.6908L38.6448 28.0954L41.7489 24.7618C42.2061 24.2689 42.2061 23.4646 41.7489 22.9717C41.2917 22.4788 40.5578 22.4788 40.1006 22.9717L12.6453 52.572C12.1881 53.0649 12.1881 53.8691 12.6453 54.362C12.8739 54.5955 13.1867 54.7252 13.4755 54.7252C13.7762 54.7252 14.065 54.5955 14.3056 54.362L17.3976 51.0155L18.8775 52.6109L12.6092 59.3819C12.5731 59.4208 12.537 59.4597 12.5009 59.5116L0.241083 76.7892C-0.119855 77.2951 -0.0717298 77.9955 0.337333 78.4365L4.23546 82.6392C4.46405 82.8857 4.76483 83.0154 5.06562 83.0154C5.30624 83.0154 5.57093 82.9246 5.77546 82.7559L21.8131 69.5253C21.8612 69.4994 21.8973 69.4605 21.9334 69.4216L59.6755 28.718C64.4037 23.5944 69.2403 21.3763 75.8455 21.2725C76.3267 21.2725 76.7478 20.9612 76.9163 20.4942C77.0847 20.0273 76.9884 19.4825 76.6636 19.1323ZM36.9966 29.8854L38.4764 31.4808L33.6037 36.7342L32.1239 35.1387L36.9966 29.8854ZM30.4636 36.9158L31.9434 38.5242L27.0708 43.7775L25.5909 42.1821L30.4636 36.9158ZM23.9306 43.9591L25.4105 45.5546L20.5378 50.8209L19.058 49.2254L23.9306 43.9591ZM5.1739 80.0839L2.71952 77.4378L13.5597 62.1577L19.3467 68.3968L5.1739 80.0839ZM21.1033 66.7495L15.0876 60.2509L20.5378 54.388L21.3319 55.2441C21.1394 55.711 21.0191 56.2169 21.0191 56.7357C21.0191 57.7086 21.368 58.6036 21.9936 59.304C22.6312 59.9785 23.4734 60.3547 24.3758 60.3547C25.2781 60.3547 26.1083 59.9785 26.7459 59.304C28.0573 57.8772 28.0573 55.5943 26.7459 54.1804C25.7714 53.1298 24.2314 52.8833 22.9922 53.467L22.1861 52.5979L27.0708 47.3446L27.8648 48.2007C27.2873 49.5367 27.5159 51.1581 28.5266 52.2607C29.1762 52.9611 30.0425 53.3113 30.9087 53.3113C31.763 53.3113 32.6292 52.9611 33.2789 52.2607C34.5903 50.8339 34.5903 48.5509 33.2789 47.1371C32.3044 46.0864 30.7644 45.8399 29.5252 46.4237L28.7191 45.5546L33.6037 40.3013L34.3978 41.1573C33.8203 42.4934 34.0489 44.1278 35.0595 45.2173C35.7092 45.9178 36.5755 46.268 37.4297 46.268C38.2959 46.268 39.1622 45.9178 39.8119 45.2173C40.4375 44.5299 40.7864 43.6219 40.7864 42.649C40.7864 41.6762 40.4375 40.7812 39.8119 40.0937C38.8012 39.0041 37.2853 38.7577 36.0461 39.3803L35.252 38.5242L40.1367 33.2579L40.9187 34.114C40.7262 34.581 40.6059 35.0868 40.6059 35.6057C40.6059 36.5785 40.9548 37.4865 41.5925 38.174C42.2181 38.8485 43.0603 39.2246 43.9627 39.2246C44.865 39.2246 45.6952 38.8485 46.3448 38.174C47.6562 36.7601 47.6562 34.4642 46.3448 33.0504C45.3703 31.9997 43.8303 31.7662 42.5911 32.3499L41.785 31.4808L51.1934 21.3374L57.2091 27.823L21.1033 66.7495ZM23.3411 56.7357C23.3411 56.4504 23.4494 56.165 23.6419 55.9575C23.8344 55.7499 24.087 55.6332 24.3637 55.6332C24.6284 55.6332 24.8931 55.7499 25.0856 55.9575C25.4827 56.3855 25.4827 57.086 25.0856 57.514C24.7006 57.9291 24.0269 57.9291 23.6419 57.514C23.4494 57.3194 23.3411 57.0341 23.3411 56.7357ZM30.1748 48.9141C30.3794 48.7066 30.6441 48.6028 30.9087 48.6028C31.1614 48.6028 31.4261 48.7066 31.6306 48.9141C32.0277 49.3422 32.0277 50.0426 31.6306 50.4707C31.2336 50.8857 30.5719 50.8857 30.1748 50.4707C29.7778 50.0556 29.7778 49.3422 30.1748 48.9141ZM36.407 42.649C36.407 42.3637 36.5153 42.0783 36.6958 41.8708C36.8883 41.6632 37.165 41.5595 37.4177 41.5595C37.6823 41.5595 37.947 41.6632 38.1395 41.8708C38.5486 42.2988 38.5486 42.9993 38.1395 43.4273C37.7425 43.8683 37.1048 43.8683 36.6958 43.4273C36.5153 43.2327 36.407 42.9603 36.407 42.649ZM42.928 35.6057C42.928 35.3203 43.0483 35.0349 43.2287 34.8274C43.4212 34.6199 43.6859 34.5161 43.9506 34.5161C44.2273 34.5161 44.492 34.6328 44.6725 34.8274C45.0816 35.2684 45.0816 35.9559 44.6725 36.3839C44.2875 36.812 43.6137 36.812 43.2287 36.3839C43.0483 36.1894 42.928 35.917 42.928 35.6057ZM58.8814 26.0848L52.8056 19.5344C56.8361 14.9296 58.9175 10.1692 59.4589 4.13758L73.1625 18.9118C67.568 19.4825 63.1525 21.7525 58.8814 26.0848Z" fill="white"/>
<path d="M25.0972 57.5272C24.7122 57.9423 24.0384 57.9423 23.6534 57.5272C23.4609 57.3197 23.3527 57.0343 23.3527 56.7489C23.3527 56.4636 23.4609 56.1782 23.6534 55.9707C23.8459 55.7631 24.0986 55.6464 24.3753 55.6464C24.64 55.6464 24.9047 55.7631 25.0972 55.9707C25.4942 56.3857 25.4942 57.0992 25.0972 57.5272ZM38.1511 43.4405C37.7541 43.8815 37.1164 43.8815 36.7074 43.4405C36.5149 43.233 36.4186 42.9606 36.4186 42.6622C36.4186 42.3769 36.5269 42.0915 36.7074 41.884C36.8999 41.6764 37.1766 41.5726 37.4292 41.5726C37.6939 41.5726 37.9586 41.6764 38.1511 41.884C38.5602 42.299 38.5602 43.0125 38.1511 43.4405ZM44.6841 36.3971C44.2991 36.8252 43.6253 36.8252 43.2403 36.3971C43.0478 36.1896 42.9395 35.9172 42.9395 35.6189C42.9395 35.3335 43.0599 35.0481 43.2403 34.8406C43.4328 34.6331 43.6975 34.5293 43.9622 34.5293C44.2389 34.5293 44.5036 34.646 44.6841 34.8406C45.0931 35.2687 45.0931 35.9691 44.6841 36.3971ZM31.6302 50.4839C31.2331 50.8989 30.5714 50.8989 30.1744 50.4839C29.7774 50.0558 29.7774 49.3554 30.1744 48.9273C30.3789 48.7198 30.6436 48.616 30.9083 48.616C31.1609 48.616 31.4256 48.7198 31.6302 48.9273C32.0272 49.3424 32.0272 50.0558 31.6302 50.4839Z" fill="white"/>
<path d="M19.3463 68.3971L5.17343 80.0841L2.71906 77.438L13.5592 62.158L19.3463 68.3971Z" fill="white"/>
<path d="M57.1966 27.8362L21.1028 66.7498L15.0872 60.2512L20.5373 54.3883L21.3314 55.2444C21.1389 55.7113 21.0186 56.2172 21.0186 56.736C21.0186 57.7089 21.3675 58.6039 21.9931 59.3043C22.6308 59.9788 23.4729 60.355 24.3753 60.355C25.2776 60.355 26.1078 59.9788 26.7454 59.3043C28.0569 57.8775 28.0569 55.5946 26.7454 54.1807C25.7709 53.1301 24.2309 52.8836 22.9917 53.4673L22.1856 52.5982L27.0703 47.3449L27.8644 48.201C27.2869 49.537 27.5154 51.1584 28.5261 52.261C29.1758 52.9614 30.042 53.3116 30.9083 53.3116C31.7625 53.3116 32.6287 52.9614 33.2784 52.261C34.5898 50.8342 34.5898 48.5512 33.2784 47.1374C32.3039 46.0867 30.7639 45.8402 29.5247 46.4239L28.7186 45.5549L33.6033 40.3015L34.3973 41.1576C33.8198 42.4937 34.0484 44.128 35.059 45.2176C35.7087 45.9181 36.575 46.2683 37.4292 46.2683C38.2955 46.2683 39.1617 45.9181 39.8114 45.2176C40.437 44.5301 40.7859 43.6222 40.7859 42.6493C40.7859 41.6765 40.437 40.7815 39.8114 40.094C38.8008 39.0044 37.2848 38.758 36.0456 39.3806L35.2515 38.5245L40.1362 33.2582L40.9183 34.1143C40.7258 34.5812 40.6055 35.0871 40.6055 35.606C40.6055 36.5788 40.9544 37.4868 41.592 38.1743C42.2176 38.8488 43.0598 39.2249 43.9622 39.2249C44.8645 39.2249 45.6947 38.8488 46.3444 38.1743C47.6558 36.7604 47.6558 34.4645 46.3444 33.0506C45.3698 32 43.8298 31.7665 42.5906 32.3502L41.7845 31.4811L51.193 21.3376L57.1966 27.8362Z" fill="white"/>
<path d="M19.3462 68.3973L5.17343 80.0843L4.12671 78.9688L18.2995 67.2817L19.3462 68.3973Z" fill="white"/>
<path d="M18.2995 67.2815L4.12671 78.9686L2.71906 77.438L6.32843 72.3662L15.785 64.5706L18.2995 67.2815Z" fill="white"/>
<path d="M57.1966 27.8361L21.1028 66.7496L20.0681 65.6341L25.025 60.29H25.037C25.6747 60.1473 26.2762 59.823 26.7455 59.3042C27.2387 58.7724 27.5395 58.1238 27.6719 57.4363L31.558 53.2466C32.1836 53.104 32.7972 52.7797 33.2905 52.2479C33.7837 51.716 34.0845 51.0675 34.2169 50.38L38.103 46.1903C38.7406 46.0476 39.3422 45.7233 39.8355 45.1915C40.3047 44.6727 40.6295 44.0371 40.7498 43.3366L44.66 39.121C45.2976 38.9783 45.8992 38.654 46.3805 38.1352C46.8737 37.6034 47.1745 36.9548 47.3069 36.2803L56.21 26.6816L57.1966 27.8361Z" fill="white"/>
<path d="M25.025 60.2902L20.0681 65.6343L17.5536 62.9234L21.5239 58.6429C21.5359 58.6558 21.5359 58.6688 21.548 58.6818C21.6803 58.9023 21.8247 59.1228 22.0052 59.3044C22.6428 59.9789 23.485 60.3551 24.3873 60.3551C24.5919 60.368 24.8205 60.3421 25.025 60.2902ZM27.6598 57.4495C27.8523 56.3081 27.5516 55.0758 26.7334 54.1937C26.553 53.9992 26.3725 53.8565 26.168 53.7268C26.1439 53.7138 26.1198 53.7008 26.0958 53.6879L28.0328 51.5995C28.0328 51.6125 28.0328 51.6254 28.0448 51.6384C28.1772 51.8589 28.3336 52.0794 28.5141 52.261C29.1637 52.9615 30.03 53.3117 30.8962 53.3117C31.1008 53.3117 31.3294 53.2858 31.5339 53.2468L27.6598 57.4495ZM34.1928 50.4062C34.3853 49.2647 34.0845 48.0324 33.2664 47.1504C33.0859 46.9558 32.9055 46.8131 32.7009 46.6834C32.6769 46.6705 32.6528 46.6575 32.6287 46.6445L34.5658 44.5561C34.5658 44.5691 34.5658 44.5821 34.5778 44.5951C34.7102 44.8156 34.8666 45.0361 35.047 45.2177C35.6967 45.9181 36.563 46.2683 37.4172 46.2683C37.6337 46.2683 37.8623 46.2424 38.0669 46.2035L34.1928 50.4062ZM40.7137 43.3758C40.7619 43.1423 40.7859 42.8958 40.7859 42.6623C40.7859 41.6895 40.437 40.7945 39.8114 40.107C39.6309 39.9125 39.4384 39.7438 39.2339 39.6011C39.2219 39.5882 39.2098 39.5882 39.1978 39.5882L41.1228 37.5128C41.1228 37.5258 41.1228 37.5387 41.1348 37.5517C41.2672 37.7722 41.4236 37.9927 41.6041 38.1743C42.2297 38.8488 43.0719 39.225 43.9742 39.225C44.1908 39.225 44.4194 39.199 44.6359 39.1472L40.7137 43.3758ZM47.2587 36.3194C47.4512 35.178 47.1505 33.9457 46.3323 33.0637C46.1519 32.8691 45.9714 32.7264 45.7669 32.5837C45.7428 32.5708 45.7308 32.5578 45.7067 32.5448L53.6233 24.0098L56.1378 26.7207L47.2587 36.3194Z" fill="white"/>
<path d="M73.162 18.9249C67.5795 19.4956 63.152 21.7526 58.8809 26.0979L57.8463 24.9824C62.1173 20.637 66.5328 18.3801 72.1274 17.8093L73.162 18.9249Z" fill="white"/>
<path d="M72.1153 17.7964C66.5328 18.3672 62.1053 20.6241 57.8342 24.9695L55.3197 22.2585C59.5908 17.9132 64.0063 15.6562 69.6008 15.0854L72.1153 17.7964Z" fill="white"/>
</g>
<defs>
<clipPath id="clip0_164_292">
<rect width="77" height="83.0156" fill="white"/>
</clipPath>
</defs>
</svg>
