<svg width="70" height="58" viewBox="0 0 70 58" fill="none" xmlns="http://www.w3.org/2000/svg">
<g clip-path="url(#clip0_957_229)">
<path d="M17.4995 45.0612C16.2308 46.0508 14.5269 46.6903 12.5768 46.7212C10.7738 46.7498 9.1469 45.8509 8.50676 44.4897C6.29705 39.7738 5.15631 35.5482 5.04184 29.5898C4.92737 23.6314 5.90509 19.3722 7.93445 14.5891C8.51978 13.2084 10.1132 12.2585 11.9142 12.2299C13.8621 12.199 15.5917 12.784 16.8954 13.7328C13.9249 17.6873 12.3771 23.013 12.5012 29.4715C12.6253 35.93 14.3767 41.2034 17.4995 45.0612Z" fill="white"/>
<path d="M50.0741 38.1014C39.6309 41.7034 31.6951 43.5457 18.3167 40.7338C17.1947 38.5918 16.4425 36.1679 16.0448 33.5538C25.1323 35.6212 37.2195 35.9195 49.488 35.7784C49.6526 36.578 49.8508 37.3528 50.0741 38.1014ZM49.0568 33.1976C36.5942 33.3314 24.4146 32.9967 15.7677 30.786C15.6827 29.3572 15.685 29.4745 15.7152 28.0543C24.2719 25.5707 36.4312 24.85 48.8914 24.5886C48.763 26.0052 48.7055 27.45 48.7333 28.8969C48.7611 30.3438 48.8741 31.7859 49.0568 33.1976ZM19.7885 14.9169C22.8132 11.0117 27.5986 8.531 34.4826 8.42182C40.2924 8.32969 48.2387 9.92013 53.287 12.6916C52.1488 13.8172 51.2293 15.3361 50.5283 17.1309C40.245 13.9663 32.2129 12.3479 19.7885 14.9169Z" fill="white"/>
<path d="M35.2762 49.8111C28.3923 49.9203 23.5145 47.5929 20.3416 43.7859C32.855 45.9594 40.8222 44.0873 50.9777 40.6003C51.7472 42.3701 52.7223 43.8589 53.903 44.9477C48.9685 47.8775 41.086 49.719 35.2762 49.8111ZM15.8843 25.2791C16.1835 22.6539 16.8421 20.2076 17.879 18.0314C31.1413 14.797 39.143 16.3866 49.7182 19.6552C49.5238 20.4104 49.3555 21.1911 49.2196 21.9954C36.9552 22.2434 24.8868 22.9247 15.8843 25.2791ZM64.7162 28.6431C64.5515 20.0703 61.5557 13.1675 58.0242 13.2235C54.4927 13.2795 51.7639 20.2731 51.9286 28.8459C52.0933 37.4188 55.0891 44.3216 58.6206 44.2656C62.1521 44.2096 64.8809 37.216 64.7162 28.6431ZM56.1911 28.7783C56.1362 25.9207 57.0466 23.5895 58.223 23.5709C59.3995 23.5522 60.3988 25.8531 60.4537 28.7107C60.5086 31.5684 59.5982 33.8996 58.4218 33.9182C57.2453 33.9369 56.246 31.6359 56.1911 28.7783Z" fill="white"/>
</g>
<defs>
<clipPath id="clip0_957_229">
<rect width="55.1962" height="68.2087" fill="white" transform="matrix(0.0192084 0.999815 -0.999874 0.0158568 68.4492 0.982422)"/>
</clipPath>
</defs>
</svg>
