<svg width="67" height="68" viewBox="0 0 67 68" fill="none" xmlns="http://www.w3.org/2000/svg">
<g clip-path="url(#clip0_957_233)">
<path d="M27.7389 66.9992C24.5578 66.9992 21.408 65.9731 18.8736 63.8899C15.7343 61.3196 13.9091 57.6921 13.7109 53.6707C13.5232 49.7012 15.0355 45.8043 17.8515 43.0059L38.2103 22.7749C38.8465 22.1426 39.2845 21.3964 39.4931 20.6087C40.9533 15.0224 41.0889 8.73128 39.9103 1.92195C39.8373 1.48665 40.0459 1.06172 40.4422 0.854433C40.8281 0.657511 41.3079 0.719697 41.6208 1.04099L66.4434 25.7079C66.7563 26.0189 66.8293 26.4956 66.6312 26.8791C66.433 27.2626 66.0054 27.4802 65.5569 27.4077C58.7046 26.2365 52.3842 26.3713 46.7522 27.8223C46.262 27.9466 45.7926 28.1643 45.3546 28.4545L48.9633 32.0405C51.6437 34.7041 53.1247 38.2591 53.1247 42.0317C53.1247 45.8043 51.6437 49.3488 48.9633 52.0228L38.2207 62.698C35.3525 65.5378 31.5353 66.9888 27.7389 66.9992ZM42.3508 4.59593C43.0601 10.5347 42.768 16.0795 41.4539 21.1062C41.1619 22.2359 40.5361 23.3034 39.6391 24.1844L19.2908 44.4155C16.8711 46.82 15.5778 50.1573 15.7343 53.5671C15.9012 57.0184 17.476 60.1277 20.1565 62.3353C24.9333 66.2633 32.2445 65.7866 36.7918 61.2678L47.5344 50.5926C52.2903 45.8665 52.2903 38.1865 47.5344 33.4604L43.8527 29.8018L40.3483 33.2842L44.03 36.9428C45.3963 38.3005 46.1473 40.1039 46.1473 42.0317C46.1473 43.9491 45.3963 45.7524 44.03 47.1102L33.2457 57.8165C30.5027 60.5423 26.1223 60.8532 23.2854 58.5109C21.7209 57.2257 20.7718 55.329 20.678 53.3184C20.5841 51.2973 21.3559 49.3178 22.7848 47.8979L43.1435 27.6668C44.03 26.7858 45.1043 26.164 46.2411 25.8634C51.2995 24.5575 56.8794 24.2673 62.8556 24.9721L42.3508 4.59593ZM38.9299 34.7041L24.2241 49.3178C23.1915 50.3438 22.6387 51.7741 22.7013 53.2251C22.7743 54.6968 23.4418 56.0234 24.5787 56.9666C26.6229 58.6456 29.8039 58.3969 31.8169 56.3966L42.6012 45.6799C44.6349 43.6589 44.6349 40.3734 42.6012 38.3524L38.9299 34.7041Z" fill="white"/>
<path d="M8.04721 61.9612C7.78646 61.9612 7.52572 61.8679 7.32756 61.671C6.93123 61.2772 6.93123 60.645 7.32756 60.2511L14.0443 53.5765C14.4406 53.1827 15.0768 53.1827 15.4731 53.5765C15.8695 53.9704 15.8695 54.6026 15.4731 54.9964L8.75643 61.671C8.56869 61.8576 8.30795 61.9612 8.04721 61.9612ZM4.62627 58.5617C4.36553 58.5617 4.10479 58.4685 3.90662 58.2715C3.51029 57.8777 3.51029 57.2455 3.90662 56.8516L17.8511 42.9946C18.2474 42.6008 18.8837 42.6008 19.28 42.9946C19.6763 43.3884 19.6763 44.0207 19.28 44.4145L5.34592 58.2612C5.14775 58.4581 4.88701 58.5617 4.62627 58.5617Z" fill="white"/>
<path d="M7.06742 65.5572C6.29563 65.5572 5.56555 65.2566 5.0232 64.7176L0.840899 60.5616C-0.285508 59.4422 -0.285508 57.6181 0.840899 56.4988C1.99859 55.3483 3.87594 55.3794 4.96063 56.4677L9.14293 60.6238C9.68527 61.1627 9.98773 61.8882 9.98773 62.6552C9.98773 63.4221 9.68527 64.1476 9.14293 64.6866L9.11164 64.7176C8.5693 65.2566 7.83922 65.5572 7.06742 65.5572ZM2.91641 57.6285C2.69738 57.6285 2.46793 57.7114 2.30105 57.8772C1.92559 58.2503 1.92559 58.7997 2.26977 59.1313L6.45207 63.2874C6.79625 63.6294 7.33859 63.6294 7.68277 63.2874L7.71406 63.2563C8.04781 62.9143 8.04781 62.3753 7.71406 62.0333L3.53176 57.8772C3.36488 57.7114 3.14586 57.6285 2.91641 57.6285ZM35.9055 58.5509C35.6448 58.5509 35.384 58.4576 35.1859 58.2607L23.4212 46.5594C23.0248 46.1656 23.0248 45.5334 23.4212 45.1395C23.8175 44.7457 24.4537 44.7457 24.85 45.1395L36.6147 56.8408C37.0111 57.2346 37.0111 57.8669 36.6147 58.2607C36.427 58.4473 36.1663 58.5509 35.9055 58.5509ZM40.724 53.7626C40.4633 53.7626 40.2025 53.6693 40.0044 53.4724L28.2397 41.7712C27.8434 41.3773 27.8434 40.7451 28.2397 40.3513C28.636 39.9574 29.2722 39.9574 29.6686 40.3513L41.4332 52.0421C41.8296 52.436 41.8296 53.0682 41.4332 53.4621C41.2455 53.659 40.9848 53.7626 40.724 53.7626ZM45.5425 48.9743C45.2818 48.9743 45.0211 48.881 44.8229 48.6841L33.0582 36.9829C32.6619 36.589 32.6619 35.9568 33.0582 35.563C33.4545 35.1691 34.0907 35.1691 34.4871 35.563L46.2518 47.2539C46.6481 47.6477 46.6481 48.2799 46.2518 48.6738C46.064 48.8707 45.8033 48.9743 45.5425 48.9743ZM20.2714 43.0149C20.0107 43.0149 19.7499 42.9216 19.5518 42.7247L16.3498 39.5428C15.9535 39.149 15.9535 38.5168 16.3498 38.1229C16.7462 37.7291 17.3824 37.7291 17.7787 38.1229L20.9806 41.3048C21.377 41.6986 21.377 42.3308 20.9806 42.7247C20.7929 42.9112 20.5321 43.0149 20.2714 43.0149Z" fill="white"/>
<path d="M16.0794 40.8184C15.8187 40.8184 15.5579 40.7251 15.3597 40.5282C14.9634 40.1344 14.9634 39.5022 15.3597 39.1083L17.3414 37.1391C17.7377 36.7453 18.3739 36.7453 18.7703 37.1391C19.1666 37.5329 19.1666 38.1652 18.7703 38.559L16.7886 40.5282C16.6009 40.7251 16.3401 40.8184 16.0794 40.8184ZM25.0906 38.2274C24.8299 38.2274 24.5692 38.1341 24.371 37.9372L21.1691 34.7553C20.7728 34.3615 20.7728 33.7293 21.1691 33.3354C21.5654 32.9416 22.2016 32.9416 22.5979 33.3354L25.7999 36.5173C26.1962 36.9111 26.1962 37.5433 25.7999 37.9372C25.6121 38.1237 25.3514 38.2274 25.0906 38.2274Z" fill="white"/>
<path d="M20.8958 36.0303C20.6351 36.0303 20.3743 35.9371 20.1762 35.7401C19.7798 35.3463 19.7798 34.7141 20.1762 34.3202L22.1578 32.351C22.5541 31.9572 23.1903 31.9572 23.5867 32.351C23.983 32.7449 23.983 33.3771 23.5867 33.7709L21.605 35.7401C21.4173 35.9371 21.1565 36.0303 20.8958 36.0303ZM29.9175 33.4393C29.6567 33.4393 29.396 33.346 29.1978 33.1491L25.9959 29.9672C25.5996 29.5734 25.5996 28.9412 25.9959 28.5473C26.3922 28.1535 27.0285 28.1535 27.4248 28.5473L30.6267 31.7292C31.023 32.123 31.023 32.7552 30.6267 33.1491C30.4285 33.3356 30.1678 33.4393 29.9175 33.4393Z" fill="white"/>
<path d="M25.7239 31.2423C25.4632 31.2423 25.2024 31.149 25.0043 30.9521C24.6079 30.5582 24.6079 29.926 25.0043 29.5322L26.9859 27.563C27.3822 27.1691 28.0185 27.1691 28.4148 27.563C28.8111 27.9568 28.8111 28.589 28.4148 28.9829L26.4331 30.9521C26.235 31.149 25.9742 31.2423 25.7239 31.2423Z" fill="white"/>
</g>
<defs>
<clipPath id="clip0_957_233">
<rect width="66.75" height="66.3313" fill="white" transform="translate(-0.00390625 0.698242)"/>
</clipPath>
</defs>
</svg>
